{"asset":{"version":"2.0","generator":"VECTARY"},"nodes":[{"translation":[0,0.0009549539694195035,-0.005000000000000001],"scale":[0.01,0.01,0.01],"rotation":[-0.7071067811865475,0,0,0.7071067811865476],"name":"Aba","children":[1,2,4,6,8,10]},{"translation":[0,5.000000000000003,10.000000000000004],"scale":[1,1,1],"rotation":[0.7071067811865477,0,0,0.7071067811865474],"name":"Merged Objects 5","mesh":0},{"translation":[-190,5.000000000000004,29.99999904632569],"scale":[1,1,1],"rotation":[0.7071067811865477,0,0,0.7071067811865474],"name":"A1","children":[3]},{"translation":[0,-3.552713678800501e-15,0],"scale":[1,1,1],"rotation":[0,0,0,1],"name":"Merged Objects 4","mesh":1},{"translation":[-59.59992599487305,5.000000000000004,29.99999904632569],"scale":[1,1,1],"rotation":[0.7071067811865477,0,0,0.7071067811865474],"name":"A2","children":[5]},{"translation":[0,-3.552713678800501e-15,0],"scale":[1,1,1],"rotation":[0,0,0,1],"name":"Merged Objects 3","mesh":2},{"translation":[19.778045654296875,5.000000000000004,29.99999904632569],"scale":[1,1,1],"rotation":[0.7071067811865477,0,0,0.7071067811865474],"name":"A3","children":[7]},{"translation":[0,-3.552713678800501e-15,0],"scale":[1,1,1],"rotation":[0,0,0,1],"name":"Merged Objects 2","mesh":3},{"translation":[100.42269897460938,5.000000000000004,29.99999904632569],"scale":[1,1,1],"rotation":[0.7071067811865477,0,0,0.7071067811865474],"name":"A4","children":[9]},{"translation":[0,-3.552713678800501e-15,0],"scale":[1,1,1],"rotation":[0,0,0,1],"name":"Merged Objects 1","mesh":4},{"translation":[180.222900390625,5.000000000000004,29.99999904632569],"scale":[1,1,1],"rotation":[0.7071067811865477,0,0,0.7071067811865474],"name":"A5","children":[11]},{"translation":[0,-3.552713678800501e-15,0],"scale":[1,1,1],"rotation":[0,0,0,1],"name":"Merged Objects","mesh":5}],"materials":[{"pbrMetallicRoughness":{"baseColorFactor":[0.907547199521614,0.907547199521614,0.907547199521614,1],"metallicFactor":0,"roughnessFactor":0.2},"name":"Maverick 67","emissiveFactor":[0,0,0],"alphaMode":"OPAQUE","doubleSided":false},{"pbrMetallicRoughness":{"baseColorFactor":[0.907547199521614,0.907547199521614,0.907547199521614,1],"metallicFactor":0,"roughnessFactor":0.2},"name":"Maverick 20","emissiveFactor":[0,0,0],"alphaMode":"OPAQUE","doubleSided":false},{"pbrMetallicRoughness":{"baseColorFactor":[0.025371276904734584,0.08241420588845924,0.36360389792055325,1],"metallicFactor":0,"roughnessFactor":0.2},"name":"Just Perfect","emissiveFactor":[0,0,0],"alphaMode":"OPAQUE","doubleSided":false},{"pbrMetallicRoughness":{"baseColorFactor":[0.025371276904734584,0.08241420588845924,0.36360389792055325,1],"metallicFactor":0,"roughnessFactor":0.2},"name":"Opera","emissiveFactor":[0,0,0],"alphaMode":"OPAQUE","doubleSided":false}],"meshes":[{"primitives":[{"mode":4,"attributes":{"POSITION":1,"NORMAL":2},"material":0,"indices":0}]},{"primitives":[{"mode":4,"attributes":{"POSITION":4,"NORMAL":5},"material":1,"indices":3}]},{"primitives":[{"mode":4,"attributes":{"POSITION":7,"NORMAL":8},"material":2,"indices":6}]},{"primitives":[{"mode":4,"attributes":{"POSITION":10,"NORMAL":11},"material":3,"indices":9}]},{"primitives":[{"mode":4,"attributes":{"POSITION":13,"NORMAL":14},"material":3,"indices":12}]},{"primitives":[{"mode":4,"attributes":{"POSITION":16,"NORMAL":17},"material":3,"indices":15}]}],"accessors":[{"bufferView":0,"byteOffset":0,"componentType":5125,"count":3456,"type":"SCALAR"},{"bufferView":1,"byteOffset":0,"componentType":5126,"count":1262,"max":[240,10,10],"min":[-240,-10,0],"type":"VEC3"},{"bufferView":2,"byteOffset":0,"componentType":5126,"count":1262,"type":"VEC3"},{"bufferView":3,"byteOffset":0,"componentType":5125,"count":684,"type":"SCALAR"},{"bufferView":4,"byteOffset":0,"componentType":5126,"count":264,"max":[50,9.999999046325684,10],"min":[-50,-9.999999046325684,0],"type":"VEC3"},{"bufferView":5,"byteOffset":0,"componentType":5126,"count":264,"type":"VEC3"},{"bufferView":6,"byteOffset":0,"componentType":5125,"count":396,"type":"SCALAR"},{"bufferView":7,"byteOffset":0,"componentType":5126,"count":160,"max":[29.999996185302734,9.999999046325684,10],"min":[-29.999996185302734,-9.999999046325684,0],"type":"VEC3"},{"bufferView":8,"byteOffset":0,"componentType":5126,"count":160,"type":"VEC3"},{"bufferView":9,"byteOffset":0,"componentType":5125,"count":396,"type":"SCALAR"},{"bufferView":10,"byteOffset":0,"componentType":5126,"count":160,"max":[30,9.999999046325684,10],"min":[-30,-9.999999046325684,0],"type":"VEC3"},{"bufferView":11,"byteOffset":0,"componentType":5126,"count":160,"type":"VEC3"},{"bufferView":12,"byteOffset":0,"componentType":5125,"count":396,"type":"SCALAR"},{"bufferView":13,"byteOffset":0,"componentType":5126,"count":160,"max":[30,9.999999046325684,10],"min":[-30,-9.999999046325684,0],"type":"VEC3"},{"bufferView":14,"byteOffset":0,"componentType":5126,"count":160,"type":"VEC3"},{"bufferView":15,"byteOffset":0,"componentType":5125,"count":396,"type":"SCALAR"},{"bufferView":16,"byteOffset":0,"componentType":5126,"count":160,"max":[30,9.999999046325684,10],"min":[-30,-9.999999046325684,0],"type":"VEC3"},{"bufferView":17,"byteOffset":0,"componentType":5126,"count":160,"type":"VEC3"}],"bufferViews":[{"buffer":0,"byteOffset":0,"byteLength":13824,"target":34963},{"buffer":0,"byteOffset":13824,"byteLength":15144,"target":34962},{"buffer":0,"byteOffset":28968,"byteLength":15144,"target":34962},{"buffer":0,"byteOffset":44112,"byteLength":2736,"target":34963},{"buffer":0,"byteOffset":46848,"byteLength":3168,"target":34962},{"buffer":0,"byteOffset":50016,"byteLength":3168,"target":34962},{"buffer":0,"byteOffset":53184,"byteLength":1584,"target":34963},{"buffer":0,"byteOffset":54768,"byteLength":1920,"target":34962},{"buffer":0,"byteOffset":56688,"byteLength":1920,"target":34962},{"buffer":0,"byteOffset":58608,"byteLength":1584,"target":34963},{"buffer":0,"byteOffset":60192,"byteLength":1920,"target":34962},{"buffer":0,"byteOffset":62112,"byteLength":1920,"target":34962},{"buffer":0,"byteOffset":64032,"byteLength":1584,"target":34963},{"buffer":0,"byteOffset":65616,"byteLength":1920,"target":34962},{"buffer":0,"byteOffset":67536,"byteLength":1920,"target":34962},{"buffer":0,"byteOffset":69456,"byteLength":1584,"target":34963},{"buffer":0,"byteOffset":71040,"byteLength":1920,"target":34962},{"buffer":0,"byteOffset":72960,"byteLength":1920,"target":34962}],"scene":0,"scenes":[{"nodes":[0],"name":"Aba"}],"extensionsUsed":["KHR_texture_transform"],"buffers":[{"byteLength":74880,"uri":"Aba.bin"}]}