{"asset":{"version":"2.0","generator":"VECTARY"},"nodes":[{"translation":[0.08,0.09478214236231666,0.016123475819018802],"scale":[0.001,0.001,0.001],"rotation":[2.7755575615628914e-16,0,0,1],"name":"SquarePlane","mesh":0},{"translation":[0.08,-7.105427357601002e-18,0.035],"scale":[0.001,0.001,0.001],"rotation":[-0.7071067811865475,0,0,0.7071067811865476],"name":"Merged Objects","mesh":1}],"materials":[{"pbrMetallicRoughness":{"baseColorFactor":[0.5604991522043282,0.6800203421720954,1,1],"metallicFactor":0,"roughnessFactor":0.2},"name":"Alley","emissiveFactor":[0,0,0],"alphaMode":"OPAQUE","doubleSided":false},{"pbrMetallicRoughness":{"baseColorFactor":[0.04943345755590796,0.1904628788224093,0.9573695761995268,1],"metallicFactor":0,"roughnessFactor":0.2},"name":"Allure","emissiveFactor":[0,0,0],"alphaMode":"OPAQUE","doubleSided":false}],"meshes":[{"primitives":[{"mode":4,"attributes":{"POSITION":1,"NORMAL":2},"material":0,"indices":0}]},{"primitives":[{"mode":4,"attributes":{"POSITION":4,"NORMAL":5},"material":1,"indices":3}]}],"accessors":[{"bufferView":0,"byteOffset":0,"componentType":5125,"count":6,"type":"SCALAR"},{"bufferView":1,"byteOffset":0,"componentType":5126,"count":4,"max":[60,40,0],"min":[-60,-40,0],"type":"VEC3"},{"bufferView":2,"byteOffset":0,"componentType":5126,"count":4,"type":"VEC3"},{"bufferView":3,"byteOffset":0,"componentType":5125,"count":742860,"type":"SCALAR"},{"bufferView":4,"byteOffset":0,"componentType":5126,"count":126682,"max":[80,40,160],"min":[-80,-40,0],"type":"VEC3"},{"bufferView":5,"byteOffset":0,"componentType":5126,"count":126682,"type":"VEC3"}],"bufferViews":[{"buffer":0,"byteOffset":0,"byteLength":24,"target":34963},{"buffer":0,"byteOffset":24,"byteLength":48,"target":34962},{"buffer":0,"byteOffset":72,"byteLength":48,"target":34962},{"buffer":0,"byteOffset":120,"byteLength":2971440,"target":34963},{"buffer":0,"byteOffset":2971560,"byteLength":1520184,"target":34962},{"buffer":0,"byteOffset":4491744,"byteLength":1520184,"target":34962}],"scene":0,"scenes":[{"nodes":[0,1],"name":"Arcade"}],"extensionsUsed":["KHR_texture_transform"],"buffers":[{"byteLength":6011928,"uri":"Arcade.bin"}]}