{"asset":{"version":"2.0","generator":"VECTARY"},"nodes":[{"translation":[-0.01246255509622656,0.026462011437275692,0.05000000000000001],"scale":[0.001,0.001,0.001],"rotation":[-0.7071067811865475,0,0,0.7071067811865476],"name":"3D Text - ?","mesh":0},{"translation":[0,-7.105427357601002e-18,0.02],"scale":[0.001,0.001,0.001],"rotation":[-0.7071067811865475,0,0,0.7071067811865476],"name":"Merged Objects 1","mesh":1}],"materials":[{"pbrMetallicRoughness":{"baseColorFactor":[0.907547199521614,0.907547199521614,0.907547199521614,1],"metallicFactor":0,"roughnessFactor":0.2},"name":"Iris","emissiveFactor":[0,0,0],"alphaMode":"OPAQUE","doubleSided":false},{"pbrMetallicRoughness":{"baseColorFactor":[0.04943345755590796,0.1904628788224093,0.9573695761995268,1],"metallicFactor":0,"roughnessFactor":0.2},"name":"Stanley","emissiveFactor":[0,0,0],"alphaMode":"OPAQUE","doubleSided":false}],"meshes":[{"primitives":[{"mode":4,"attributes":{"POSITION":1,"NORMAL":2},"material":0,"indices":0}]},{"primitives":[{"mode":4,"attributes":{"POSITION":4,"NORMAL":5},"material":1,"indices":3}]}],"accessors":[{"bufferView":0,"byteOffset":0,"componentType":5125,"count":1128,"type":"SCALAR"},{"bufferView":1,"byteOffset":0,"componentType":5126,"count":744,"max":[25,2.1437298517010175e-15,35.009765625],"min":[3.0029296875,-15,0],"type":"VEC3"},{"bufferView":2,"byteOffset":0,"componentType":5126,"count":744,"type":"VEC3"},{"bufferView":3,"byteOffset":0,"componentType":5125,"count":6480,"type":"SCALAR"},{"bufferView":4,"byteOffset":0,"componentType":5126,"count":1703,"max":[40,30,80],"min":[-40,-30,0],"type":"VEC3"},{"bufferView":5,"byteOffset":0,"componentType":5126,"count":1703,"type":"VEC3"}],"bufferViews":[{"buffer":0,"byteOffset":0,"byteLength":4512,"target":34963},{"buffer":0,"byteOffset":4512,"byteLength":8928,"target":34962},{"buffer":0,"byteOffset":13440,"byteLength":8928,"target":34962},{"buffer":0,"byteOffset":22368,"byteLength":25920,"target":34963},{"buffer":0,"byteOffset":48288,"byteLength":20436,"target":34962},{"buffer":0,"byteOffset":68724,"byteLength":20436,"target":34962}],"scene":0,"scenes":[{"nodes":[0,1],"name":"Box"}],"extensionsUsed":["KHR_texture_transform"],"buffers":[{"byteLength":89160,"uri":"Box.bin"}]}