{
    "asset" : {
        "generator" : "Khronos glTF Blender I/O v1.3.48",
        "version" : "2.0"
    },
    "scene" : 0,
    "scenes" : [
        {
            "name" : "Scene",
            "nodes" : [
                3,
                4,
                5
            ]
        }
    ],
    "nodes" : [
        {
            "mesh" : 0,
            "name" : "Merged Objects"
        },
        {
            "mesh" : 1,
            "name" : "Merged Objects 2",
            "translation" : [
                0,
                20,
                40
            ]
        },
        {
            "mesh" : 2,
            "name" : "Merged Objects 3",
            "translation" : [
                0,
                5,
                100
            ]
        },
        {
            "children" : [
                0,
                1,
                2
            ],
            "name" : "Group 35",
            "rotation" : [
                -0.7071068286895752,
                0,
                0,
                0.7071068286895752
            ],
            "scale" : [
                0.012000000104308128,
                0.012000000104308128,
                0.012000000104308128
            ],
            "translation" : [
                0,
                0,
                0.014999999664723873
            ]
        },
        {
            "name" : "Light",
            "rotation" : [
                0.16907575726509094,
                0.7558803558349609,
                -0.27217137813568115,
                0.570947527885437
            ],
            "translation" : [
                4.076245307922363,
                5.903861999511719,
                -1.0054539442062378
            ]
        },
        {
            "name" : "Camera",
            "rotation" : [
                0.483536034822464,
                0.33687159419059753,
                -0.20870360732078552,
                0.7804827094078064
            ],
            "translation" : [
                7.358891487121582,
                4.958309173583984,
                6.925790786743164
            ]
        }
    ],
    "materials" : [
        {
            "emissiveFactor" : [
                0,
                0,
                0
            ],
            "name" : "Quiet Time",
            "pbrMetallicRoughness" : {
                "baseColorFactor" : [
                    0.04943345859646797,
                    0.1904628723859787,
                    0.9573695659637451,
                    1
                ],
                "metallicFactor" : 0,
                "roughnessFactor" : 0.20000000298023224
            }
        },
        {
            "emissiveFactor" : [
                0,
                0,
                0
            ],
            "name" : "Gossip Soda",
            "pbrMetallicRoughness" : {
                "baseColorFactor" : [
                    0.9075471758842468,
                    0.9075471758842468,
                    0.9075471758842468,
                    1
                ],
                "metallicFactor" : 0,
                "roughnessFactor" : 0.20000000298023224
            }
        },
        {
            "emissiveFactor" : [
                0.05882352963089943,
                0.10980392247438431,
                0.23137255012989044
            ],
            "name" : "Glittery Glow",
            "pbrMetallicRoughness" : {
                "baseColorFactor" : [
                    0.04943345859646797,
                    0.1904628723859787,
                    0.9573695659637451,
                    1
                ],
                "metallicFactor" : 0,
                "roughnessFactor" : 0.20000000298023224
            }
        }
    ],
    "meshes" : [
        {
            "name" : "Mesh_0",
            "primitives" : [
                {
                    "attributes" : {
                        "POSITION" : 0,
                        "NORMAL" : 1
                    },
                    "indices" : 2,
                    "material" : 0
                }
            ]
        },
        {
            "name" : "Mesh_1",
            "primitives" : [
                {
                    "attributes" : {
                        "POSITION" : 3,
                        "NORMAL" : 4
                    },
                    "indices" : 5,
                    "material" : 1
                }
            ]
        },
        {
            "name" : "Mesh_2",
            "primitives" : [
                {
                    "attributes" : {
                        "POSITION" : 6,
                        "NORMAL" : 7
                    },
                    "indices" : 8,
                    "material" : 2
                }
            ]
        }
    ],
    "accessors" : [
        {
            "bufferView" : 0,
            "componentType" : 5126,
            "count" : 1114,
            "max" : [
                60,
                25,
                50
            ],
            "min" : [
                -60,
                -25,
                -8.881784197001252e-16
            ],
            "type" : "VEC3"
        },
        {
            "bufferView" : 1,
            "componentType" : 5126,
            "count" : 1114,
            "type" : "VEC3"
        },
        {
            "bufferView" : 2,
            "componentType" : 5123,
            "count" : 3636,
            "type" : "SCALAR"
        },
        {
            "bufferView" : 3,
            "componentType" : 5126,
            "count" : 246,
            "max" : [
                10,
                5,
                60
            ],
            "min" : [
                -10,
                -5,
                0
            ],
            "type" : "VEC3"
        },
        {
            "bufferView" : 4,
            "componentType" : 5126,
            "count" : 246,
            "type" : "VEC3"
        },
        {
            "bufferView" : 5,
            "componentType" : 5123,
            "count" : 432,
            "type" : "SCALAR"
        },
        {
            "bufferView" : 6,
            "componentType" : 5126,
            "count" : 1010,
            "max" : [
                30,
                20,
                60
            ],
            "min" : [
                -30,
                -20,
                0
            ],
            "type" : "VEC3"
        },
        {
            "bufferView" : 7,
            "componentType" : 5126,
            "count" : 1010,
            "type" : "VEC3"
        },
        {
            "bufferView" : 8,
            "componentType" : 5123,
            "count" : 2592,
            "type" : "SCALAR"
        }
    ],
    "bufferViews" : [
        {
            "buffer" : 0,
            "byteLength" : 13368,
            "byteOffset" : 0
        },
        {
            "buffer" : 0,
            "byteLength" : 13368,
            "byteOffset" : 13368
        },
        {
            "buffer" : 0,
            "byteLength" : 7272,
            "byteOffset" : 26736
        },
        {
            "buffer" : 0,
            "byteLength" : 2952,
            "byteOffset" : 34008
        },
        {
            "buffer" : 0,
            "byteLength" : 2952,
            "byteOffset" : 36960
        },
        {
            "buffer" : 0,
            "byteLength" : 864,
            "byteOffset" : 39912
        },
        {
            "buffer" : 0,
            "byteLength" : 12120,
            "byteOffset" : 40776
        },
        {
            "buffer" : 0,
            "byteLength" : 12120,
            "byteOffset" : 52896
        },
        {
            "buffer" : 0,
            "byteLength" : 5184,
            "byteOffset" : 65016
        }
    ],
    "buffers" : [
        {
            "byteLength" : 70200,
            "uri" : "Joy.bin"
        }
    ]
}
