{
    "asset" : {
        "generator" : "Khronos glTF Blender I/O v1.3.48",
        "version" : "2.0"
    },
    "scene" : 0,
    "scenes" : [
        {
            "name" : "Scene",
            "nodes" : [
                3,
                4,
                5
            ]
        }
    ],
    "nodes" : [
        {
            "mesh" : 0,
            "name" : "Sphere & Box"
        },
        {
            "mesh" : 1,
            "name" : "Sphere 1",
            "translation" : [
                40,
                -10,
                70
            ]
        },
        {
            "mesh" : 2,
            "name" : "Sphere 2",
            "translation" : [
                -40,
                -10,
                70
            ]
        },
        {
            "children" : [
                0,
                1,
                2
            ],
            "name" : "Group",
            "rotation" : [
                -0.7071068286895752,
                0,
                0,
                0.7071068286895752
            ],
            "scale" : [
                0.014999999664723873,
                0.014999999664723873,
                0.014999999664723873
            ]
        },
        {
            "name" : "Light",
            "rotation" : [
                0.16907575726509094,
                0.7558803558349609,
                -0.27217137813568115,
                0.570947527885437
            ],
            "translation" : [
                4.076245307922363,
                5.903861999511719,
                -1.0054539442062378
            ]
        },
        {
            "name" : "Camera",
            "rotation" : [
                0.483536034822464,
                0.33687159419059753,
                -0.20870360732078552,
                0.7804827094078064
            ],
            "translation" : [
                7.358891487121582,
                4.958309173583984,
                6.925790786743164
            ]
        }
    ],
    "materials" : [
        {
            "emissiveFactor" : [
                0,
                0,
                0
            ],
            "name" : "Maverick",
            "pbrMetallicRoughness" : {
                "baseColorFactor" : [
                    0.04943345859646797,
                    0.1904628723859787,
                    0.9573695659637451,
                    1
                ],
                "metallicFactor" : 0,
                "roughnessFactor" : 0.49000000953674316
            }
        },
        {
            "emissiveFactor" : [
                0,
                0,
                0
            ],
            "name" : "Hugo",
            "pbrMetallicRoughness" : {
                "baseColorFactor" : [
                    0,
                    0,
                    0,
                    1
                ],
                "metallicFactor" : 0,
                "roughnessFactor" : 0.20000000298023224
            }
        }
    ],
    "meshes" : [
        {
            "name" : "Mesh_2.001",
            "primitives" : [
                {
                    "attributes" : {
                        "POSITION" : 0,
                        "NORMAL" : 1
                    },
                    "indices" : 2,
                    "material" : 0
                }
            ]
        },
        {
            "name" : "Mesh_1.001",
            "primitives" : [
                {
                    "attributes" : {
                        "POSITION" : 3,
                        "NORMAL" : 4
                    },
                    "indices" : 5,
                    "material" : 1
                }
            ]
        },
        {
            "name" : "Mesh_0.001",
            "primitives" : [
                {
                    "attributes" : {
                        "POSITION" : 6,
                        "NORMAL" : 7
                    },
                    "indices" : 5,
                    "material" : 1
                }
            ]
        }
    ],
    "accessors" : [
        {
            "bufferView" : 0,
            "componentType" : 5126,
            "count" : 2768,
            "max" : [
                49.41180419921875,
                34.94865036010742,
                100
            ],
            "min" : [
                -49.41180419921875,
                -50,
                0
            ],
            "type" : "VEC3"
        },
        {
            "bufferView" : 1,
            "componentType" : 5126,
            "count" : 2768,
            "type" : "VEC3"
        },
        {
            "bufferView" : 2,
            "componentType" : 5123,
            "count" : 2772,
            "type" : "SCALAR"
        },
        {
            "bufferView" : 3,
            "componentType" : 5126,
            "count" : 482,
            "max" : [
                10,
                10,
                20
            ],
            "min" : [
                -10,
                -10,
                0
            ],
            "type" : "VEC3"
        },
        {
            "bufferView" : 4,
            "componentType" : 5126,
            "count" : 482,
            "type" : "VEC3"
        },
        {
            "bufferView" : 5,
            "componentType" : 5123,
            "count" : 2880,
            "type" : "SCALAR"
        },
        {
            "bufferView" : 6,
            "componentType" : 5126,
            "count" : 482,
            "max" : [
                10,
                10,
                20
            ],
            "min" : [
                -10,
                -10,
                0
            ],
            "type" : "VEC3"
        },
        {
            "bufferView" : 7,
            "componentType" : 5126,
            "count" : 482,
            "type" : "VEC3"
        }
    ],
    "bufferViews" : [
        {
            "buffer" : 0,
            "byteLength" : 33216,
            "byteOffset" : 0
        },
        {
            "buffer" : 0,
            "byteLength" : 33216,
            "byteOffset" : 33216
        },
        {
            "buffer" : 0,
            "byteLength" : 5544,
            "byteOffset" : 66432
        },
        {
            "buffer" : 0,
            "byteLength" : 5784,
            "byteOffset" : 71976
        },
        {
            "buffer" : 0,
            "byteLength" : 5784,
            "byteOffset" : 77760
        },
        {
            "buffer" : 0,
            "byteLength" : 5760,
            "byteOffset" : 83544
        },
        {
            "buffer" : 0,
            "byteLength" : 5784,
            "byteOffset" : 89304
        },
        {
            "buffer" : 0,
            "byteLength" : 5784,
            "byteOffset" : 95088
        }
    ],
    "buffers" : [
        {
            "byteLength" : 100872,
            "uri" : "PACMAN.bin"
        }
    ]
}
